<svg width="451" height="440" viewBox="0 0 451 440" fill="none" xmlns="http://www.w3.org/2000/svg">
<rect width="375" height="440" fill="white"/>
<path d="M150.552 84.1617V123.426H134.981V120.251C132.192 123.142 128.499 124.588 123.903 124.588C118.377 124.588 113.832 122.678 110.268 118.857C106.756 114.985 105 109.977 105 103.833C105 97.6371 106.756 92.629 110.268 88.8084C113.832 84.9361 118.377 83 123.903 83C128.499 83 132.192 84.4456 134.981 87.3369V84.1617H150.552ZM122.508 109.409C123.851 110.906 125.581 111.655 127.699 111.655C129.816 111.655 131.546 110.906 132.889 109.409C134.284 107.911 134.981 106.053 134.981 103.833C134.981 101.613 134.284 99.7539 132.889 98.2566C131.546 96.7077 129.816 95.9333 127.699 95.9333C125.581 95.9333 123.851 96.7077 122.508 98.2566C121.217 99.7539 120.571 101.613 120.571 103.833C120.571 106.053 121.217 107.911 122.508 109.409Z" fill="black"/>
<path d="M153.341 200.871H134.129L124.755 188.402H122.353V200.871H106.782V145.111H122.353V174.462H123.903L133.819 161.607H151.947L137.228 180.271L153.341 200.871Z" fill="black"/>
<path d="M157.431 144.336C159.084 142.684 161.149 141.858 163.629 141.858C166.108 141.858 168.148 142.684 169.749 144.336C171.401 145.989 172.228 147.95 172.228 150.222C172.228 152.649 171.427 154.662 169.826 156.263C168.225 157.812 166.159 158.586 163.629 158.586C161.098 158.586 159.032 157.812 157.431 156.263C155.83 154.662 155.029 152.649 155.029 150.222C155.029 147.899 155.83 145.937 157.431 144.336ZM171.453 200.871H155.804V161.607H171.453V200.871Z" fill="black"/>
<path d="M221.48 145.111V200.871H205.908V197.696C203.12 200.587 199.427 202.033 194.83 202.033C189.304 202.033 184.759 200.122 181.195 196.302C177.684 192.43 175.928 187.422 175.928 181.278C175.928 175.082 177.684 170.074 181.195 166.253C184.759 162.381 189.304 160.445 194.83 160.445C199.427 160.445 203.12 161.891 205.908 164.782V145.111H221.48ZM193.436 186.854C194.779 188.351 196.509 189.099 198.626 189.099C200.744 189.099 202.474 188.351 203.817 186.854C205.211 185.356 205.908 183.498 205.908 181.278C205.908 179.057 205.211 177.199 203.817 175.702C202.474 174.153 200.744 173.378 198.626 173.378C196.509 173.378 194.779 174.153 193.436 175.702C192.145 177.199 191.499 179.057 191.499 181.278C191.499 183.498 192.145 185.356 193.436 186.854Z" fill="black"/>
<path d="M225.234 190.803L240.031 187.86C240.651 190.132 242.407 191.268 245.299 191.268C246.435 191.268 247.313 191.087 247.933 190.726C248.553 190.313 248.863 189.848 248.863 189.332C248.863 188.764 248.604 188.351 248.088 188.093C247.571 187.783 246.719 187.551 245.531 187.396L237.707 186.079C229.805 184.788 225.854 180.865 225.854 174.308C225.854 170.022 227.558 166.64 230.967 164.162C234.427 161.684 238.714 160.445 243.827 160.445C249.095 160.445 253.33 161.374 256.532 163.233C259.786 165.092 261.903 167.751 262.885 171.21L249.173 173.92C248.966 173.094 248.398 172.32 247.468 171.597C246.539 170.823 245.376 170.435 243.982 170.435C242.949 170.435 242.149 170.642 241.58 171.055C241.064 171.416 240.806 171.855 240.806 172.371C240.806 173.301 241.555 173.92 243.052 174.23L251.961 175.934C259.812 177.431 263.737 181.691 263.737 188.712C263.737 192.894 261.981 196.173 258.469 198.548C254.957 200.871 250.489 202.033 245.067 202.033C239.799 202.033 235.383 201.103 231.819 199.245C228.307 197.386 226.112 194.572 225.234 190.803Z" fill="black"/>
<path d="M133.432 237.89C138.958 237.89 143.503 239.826 147.066 243.698C150.63 247.519 152.412 252.527 152.412 258.722C152.412 264.866 150.63 269.875 147.066 273.747C143.503 277.567 138.958 279.478 133.432 279.478C128.887 279.478 125.194 278.006 122.353 275.063V278.316H106.782V222.556H122.353V242.304C125.194 239.361 128.887 237.89 133.432 237.89ZM124.368 264.298C125.762 265.796 127.518 266.544 129.636 266.544C131.753 266.544 133.457 265.796 134.749 264.298C136.091 262.801 136.763 260.943 136.763 258.722C136.763 256.502 136.091 254.644 134.749 253.146C133.457 251.598 131.753 250.823 129.636 250.823C127.518 250.823 125.762 251.598 124.368 253.146C123.025 254.644 122.353 256.502 122.353 258.722C122.353 260.943 123.025 262.801 124.368 264.298Z" fill="black"/>
<path d="M176.541 237.967C182.687 237.967 187.903 239.903 192.19 243.776C196.476 247.648 198.62 252.63 198.62 258.722C198.62 264.815 196.476 269.797 192.19 273.669C187.903 277.542 182.687 279.478 176.541 279.478C170.343 279.478 165.101 277.542 160.814 273.669C156.528 269.797 154.384 264.815 154.384 258.722C154.384 252.63 156.528 247.648 160.814 243.776C165.101 239.903 170.343 237.967 176.541 237.967ZM176.541 266.544C178.555 266.544 180.233 265.796 181.576 264.298C182.971 262.75 183.668 260.891 183.668 258.722C183.668 256.502 182.971 254.644 181.576 253.146C180.233 251.598 178.555 250.823 176.541 250.823C174.475 250.823 172.745 251.598 171.35 253.146C170.007 254.644 169.336 256.502 169.336 258.722C169.336 260.891 170.007 262.75 171.35 264.298C172.745 265.796 174.475 266.544 176.541 266.544Z" fill="black"/>
<path d="M222.823 237.967C228.969 237.967 234.185 239.903 238.472 243.776C242.759 247.648 244.902 252.63 244.902 258.722C244.902 264.815 242.759 269.797 238.472 273.669C234.185 277.542 228.969 279.478 222.823 279.478C216.625 279.478 211.383 277.542 207.097 273.669C202.81 269.797 200.667 264.815 200.667 258.722C200.667 252.63 202.81 247.648 207.097 243.776C211.383 239.903 216.625 237.967 222.823 237.967ZM222.823 266.544C224.837 266.544 226.516 265.796 227.859 264.298C229.253 262.75 229.95 260.891 229.95 258.722C229.95 256.502 229.253 254.644 227.859 253.146C226.516 251.598 224.837 250.823 222.823 250.823C220.757 250.823 219.027 251.598 217.632 253.146C216.29 254.644 215.618 256.502 215.618 258.722C215.618 260.891 216.29 262.75 217.632 264.298C219.027 265.796 220.757 266.544 222.823 266.544Z" fill="black"/>
<path d="M295.29 278.316H276.078L266.704 265.847H264.302V278.316H248.731V222.556H264.302V251.907H265.852L275.768 239.051H293.896L279.176 257.716L295.29 278.316Z" fill="black"/>
<path d="M150.552 316.496V355.761H134.981V352.586C132.192 355.477 128.499 356.923 123.903 356.923C118.377 356.923 113.832 355.012 110.268 351.192C106.756 347.319 105 342.311 105 336.167C105 329.972 106.756 324.964 110.268 321.143C113.832 317.271 118.377 315.335 123.903 315.335C128.499 315.335 132.192 316.78 134.981 319.672V316.496H150.552ZM122.508 341.743C123.851 343.241 125.581 343.989 127.699 343.989C129.816 343.989 131.546 343.241 132.889 341.743C134.284 340.246 134.981 338.387 134.981 336.167C134.981 333.947 134.284 332.089 132.889 330.591C131.546 329.042 129.816 328.268 127.699 328.268C125.581 328.268 123.851 329.042 122.508 330.591C121.217 332.089 120.571 333.947 120.571 336.167C120.571 338.387 121.217 340.246 122.508 341.743Z" fill="black"/>
<path d="M182.816 315.335C188.342 315.335 192.887 317.271 196.45 321.143C200.014 324.964 201.796 329.972 201.796 336.167C201.796 342.311 200.014 347.319 196.45 351.192C192.887 355.012 188.342 356.923 182.816 356.923C178.271 356.923 174.578 355.451 171.737 352.508V355.761H156.166V300.001H171.737V319.749C174.578 316.806 178.271 315.335 182.816 315.335ZM173.752 341.743C175.146 343.241 176.902 343.989 179.02 343.989C181.137 343.989 182.842 343.241 184.133 341.743C185.476 340.246 186.147 338.387 186.147 336.167C186.147 333.947 185.476 332.089 184.133 330.591C182.842 329.042 181.137 328.268 179.02 328.268C176.902 328.268 175.146 329.042 173.752 330.591C172.409 332.089 171.737 333.947 171.737 336.167C171.737 338.387 172.409 340.246 173.752 341.743Z" fill="black"/>
<path d="M225.925 315.412C232.071 315.412 237.287 317.348 241.574 321.22C245.86 325.093 248.004 330.075 248.004 336.167C248.004 342.26 245.86 347.242 241.574 351.114C237.287 354.986 232.071 356.923 225.925 356.923C219.727 356.923 214.485 354.986 210.198 351.114C205.912 347.242 203.768 342.26 203.768 336.167C203.768 330.075 205.912 325.093 210.198 321.22C214.485 317.348 219.727 315.412 225.925 315.412ZM225.925 343.989C227.939 343.989 229.618 343.241 230.96 341.743C232.355 340.194 233.052 338.336 233.052 336.167C233.052 333.947 232.355 332.089 230.96 330.591C229.618 329.042 227.939 328.268 225.925 328.268C223.859 328.268 222.129 329.042 220.734 330.591C219.391 332.089 218.72 333.947 218.72 336.167C218.72 338.336 219.391 340.194 220.734 341.743C222.129 343.241 223.859 343.989 225.925 343.989Z" fill="black"/>
<path d="M293.589 316.574V355.838H278.017V351.734C274.815 355.245 270.942 357 266.397 357C261.955 357 258.417 355.58 255.783 352.741C253.15 349.849 251.833 345.925 251.833 340.969V316.574H267.404V337.639C267.404 339.291 267.869 340.633 268.798 341.666C269.728 342.647 270.916 343.137 272.362 343.137C274.118 343.137 275.487 342.518 276.468 341.279C277.501 340.04 278.017 338.284 278.017 336.012V316.574H293.589Z" fill="black"/>
<path d="M326.211 342.518L329 354.057C325.385 355.967 321.589 356.923 317.612 356.923C312.447 356.923 308.496 355.554 305.759 352.818C303.022 350.03 301.653 346.184 301.653 341.279V328.578H296.308V316.496H301.653V305.422H317.225V316.496H326.986V328.578H317.225V339.343C317.225 342.182 318.696 343.602 321.64 343.602C323.448 343.602 324.972 343.241 326.211 342.518Z" fill="black"/>
<rect width="59" height="440" fill="black"/>
<path d="M413.836 6.87761H403.372V32H395.464V6.87761H385V0H413.836V6.87761Z" fill="white"/>
<path d="M451 0V32H443.285V16.0478L434.846 32H429.927L421.44 15.9522V32H413.725V0H421.537L432.387 19.8209L443.236 0H451Z" fill="white"/>
</svg>
